<svg width="24" height="24" viewBox="0 0 24 24" fill="none" xmlns="http://www.w3.org/2000/svg">
<path d="M17.5629 1.00458L14.7856 1C11.6655 1 9.64909 3.12509 9.64909 6.41423V8.91055H6.85668C6.61538 8.91055 6.41998 9.1115 6.41998 9.35937V12.9763C6.41998 13.2241 6.61561 13.4249 6.85668 13.4249H9.64909V22.5514C9.64909 22.7993 9.84449 23 10.0858 23H13.7291C13.9704 23 14.1658 22.799 14.1658 22.5514V13.4249H17.4308C17.6721 13.4249 17.8675 13.2241 17.8675 12.9763L17.8688 9.35937C17.8688 9.24036 17.8227 9.12638 17.7409 9.04215C17.6592 8.95793 17.5478 8.91055 17.4319 8.91055H14.1658V6.79439C14.1658 5.77727 14.4017 5.26094 15.6916 5.26094L17.5625 5.26025C17.8035 5.26025 17.9989 5.0593 17.9989 4.81166V1.45317C17.9989 1.20576 17.8038 1.00504 17.5629 1.00458Z" fill="#19BCE4"/>
</svg>
