<svg width="96" height="16" viewBox="0 0 96 16" fill="none" xmlns="http://www.w3.org/2000/svg">
<g clip-path="url(#clip0_2_139)">
<path d="M7.31191 1.0868C7.57303 0.484638 8.42697 0.484639 8.68809 1.0868L10.0917 4.32364C10.309 4.82487 10.7817 5.16829 11.3256 5.22011L14.8377 5.55478C15.4911 5.61704 15.755 6.42919 15.263 6.86361L12.6183 9.19875C12.2088 9.56036 12.0282 10.116 12.147 10.6493L12.914 14.093C13.0567 14.7336 12.3659 15.2355 11.8007 14.9019L8.76259 13.1082C8.29213 12.8305 7.70787 12.8305 7.23741 13.1082L4.19931 14.9019C3.63412 15.2355 2.94326 14.7336 3.08595 14.093L3.85298 10.6493C3.97175 10.116 3.7912 9.56036 3.38167 9.19875L0.736993 6.86361C0.244995 6.42919 0.50888 5.61704 1.16226 5.55478L4.67441 5.22011C5.21827 5.16829 5.69095 4.82487 5.9083 4.32364L7.31191 1.0868Z" fill="#FEBB35"/>
</g>
<g clip-path="url(#clip1_2_139)">
<path d="M27.3119 1.0868C27.573 0.484638 28.427 0.484639 28.6881 1.0868L30.0917 4.32364C30.309 4.82487 30.7817 5.16829 31.3256 5.22011L34.8377 5.55478C35.4911 5.61704 35.755 6.42919 35.263 6.86361L32.6183 9.19875C32.2088 9.56036 32.0282 10.116 32.147 10.6493L32.914 14.093C33.0567 14.7336 32.3659 15.2355 31.8007 14.9019L28.7626 13.1082C28.2921 12.8305 27.7079 12.8305 27.2374 13.1082L24.1993 14.9019C23.6341 15.2355 22.9433 14.7336 23.086 14.093L23.853 10.6493C23.9718 10.116 23.7912 9.56036 23.3817 9.19875L20.737 6.86361C20.245 6.42919 20.5089 5.61704 21.1623 5.55478L24.6744 5.22011C25.2183 5.16829 25.691 4.82487 25.9083 4.32364L27.3119 1.0868Z" fill="#FEBB35"/>
</g>
<g clip-path="url(#clip2_2_139)">
<path d="M47.3119 1.0868C47.573 0.484638 48.427 0.484639 48.6881 1.0868L50.0917 4.32364C50.309 4.82487 50.7817 5.16829 51.3256 5.22011L54.8377 5.55478C55.4911 5.61704 55.755 6.42919 55.263 6.86361L52.6183 9.19875C52.2088 9.56036 52.0282 10.116 52.147 10.6493L52.914 14.093C53.0567 14.7336 52.3659 15.2355 51.8007 14.9019L48.7626 13.1082C48.2921 12.8305 47.7079 12.8305 47.2374 13.1082L44.1993 14.9019C43.6341 15.2355 42.9433 14.7336 43.086 14.093L43.853 10.6493C43.9718 10.116 43.7912 9.56036 43.3817 9.19875L40.737 6.86361C40.245 6.42919 40.5089 5.61704 41.1623 5.55478L44.6744 5.22011C45.2183 5.16829 45.691 4.82487 45.9083 4.32364L47.3119 1.0868Z" fill="#FEBB35"/>
</g>
<g clip-path="url(#clip3_2_139)">
<path d="M67.3119 1.0868C67.573 0.484638 68.427 0.484639 68.6881 1.0868L70.0917 4.32364C70.309 4.82487 70.7817 5.16829 71.3256 5.22011L74.8377 5.55478C75.4911 5.61704 75.755 6.42919 75.263 6.86361L72.6183 9.19875C72.2088 9.56036 72.0282 10.116 72.147 10.6493L72.914 14.093C73.0567 14.7336 72.3659 15.2355 71.8007 14.9019L68.7626 13.1082C68.2921 12.8305 67.7079 12.8305 67.2374 13.1082L64.1993 14.9019C63.6341 15.2355 62.9433 14.7336 63.086 14.093L63.853 10.6493C63.9718 10.116 63.7912 9.56036 63.3817 9.19875L60.737 6.86361C60.245 6.42919 60.5089 5.61704 61.1623 5.55478L64.6744 5.22011C65.2183 5.16829 65.691 4.82487 65.9083 4.32364L67.3119 1.0868Z" fill="#D2D1D1"/>
</g>
<g clip-path="url(#clip4_2_139)">
<path d="M87.3119 1.0868C87.573 0.484638 88.427 0.484639 88.6881 1.0868L90.0917 4.32364C90.309 4.82487 90.7817 5.16829 91.3256 5.22011L94.8377 5.55478C95.4911 5.61704 95.755 6.42919 95.263 6.86361L92.6183 9.19875C92.2088 9.56036 92.0282 10.116 92.147 10.6493L92.914 14.093C93.0567 14.7336 92.3659 15.2355 91.8007 14.9019L88.7626 13.1082C88.2921 12.8305 87.7079 12.8305 87.2374 13.1082L84.1993 14.9019C83.6341 15.2355 82.9433 14.7336 83.086 14.093L83.853 10.6493C83.9718 10.116 83.7912 9.56036 83.3817 9.19875L80.737 6.86361C80.245 6.42919 80.5089 5.61704 81.1623 5.55478L84.6744 5.22011C85.2183 5.16829 85.691 4.82487 85.9083 4.32364L87.3119 1.0868Z" fill="#D2D1D1"/>
</g>
<defs>
<clipPath id="clip0_2_139">
<rect width="16" height="16" fill="white"/>
</clipPath>
<clipPath id="clip1_2_139">
<rect width="16" height="16" fill="white" transform="translate(20)"/>
</clipPath>
<clipPath id="clip2_2_139">
<rect width="16" height="16" fill="white" transform="translate(40)"/>
</clipPath>
<clipPath id="clip3_2_139">
<rect width="16" height="16" fill="white" transform="translate(60)"/>
</clipPath>
<clipPath id="clip4_2_139">
<rect width="16" height="16" fill="white" transform="translate(80)"/>
</clipPath>
</defs>
</svg>
