<svg width="24" height="24" viewBox="0 0 24 24" fill="none" xmlns="http://www.w3.org/2000/svg">
<path d="M22.5 5.77258C21.7271 6.10051 20.8978 6.32292 20.0264 6.42221C20.9161 5.91205 21.5972 5.10287 21.92 4.14164C21.0854 4.61408 20.1642 4.95713 19.1826 5.14309C18.3966 4.34019 17.2785 3.84009 16.0384 3.84009C13.6593 3.84009 11.7303 5.68715 11.7303 7.96394C11.7303 8.28685 11.7683 8.60223 11.8418 8.90382C8.26201 8.73165 5.08768 7.08941 2.96314 4.59397C2.59176 5.20213 2.38049 5.91077 2.38049 6.66721C2.38049 8.09839 3.14161 9.36117 4.2964 10.1C3.5904 10.0774 2.92639 9.89141 2.34508 9.5823V9.63381C2.34508 11.6317 3.83056 13.299 5.80024 13.6785C5.43936 13.7715 5.05882 13.823 4.66514 13.823C4.38696 13.823 4.11794 13.7966 3.85417 13.7464C4.40267 15.3861 5.99315 16.5785 7.87756 16.6112C6.40388 17.7169 4.54573 18.3741 2.52749 18.3741C2.17976 18.3741 1.83724 18.354 1.5 18.3176C3.40671 19.4899 5.67036 20.1734 8.10327 20.1734C16.028 20.1734 20.3597 13.8884 20.3597 8.43766L20.3453 7.90365C21.1917 7.32561 21.9239 6.59937 22.5 5.77258Z" fill="#19BCE4"/>
</svg>
